<svg xmlns="http://www.w3.org/2000/svg" width="298" height="57" viewBox="0 0 298 57">
  <g fill="none">
    <path fill="#000" d="M0.508280255,56.6369427 L3.19490446,49.6299363 L4.21146497,49.6299363 L7.07961783,56.6369427 L6.02675159,56.6369427 L5.19171975,54.4949045 L2.25095541,54.4949045 L1.48853503,56.6369427 L0.508280255,56.6369427 Z M2.54140127,53.7687898 L4.90127389,53.7687898 L4.17515924,51.8082803 C3.95732484,51.1910828 3.77579618,50.7191083 3.66687898,50.356051 C3.59426752,50.7917197 3.44904459,51.2273885 3.30382166,51.6993631 L2.54140127,53.7687898 Z M15.2121019,56.6369427 L15.2121019,49.6299363 L18.3343949,49.6299363 C18.8789809,49.6299363 19.3146497,49.666242 19.6414013,49.7751592 C19.9681529,49.8840764 20.2585987,50.1019108 20.4764331,50.3923567 C20.6942675,50.7191083 20.8031847,51.0821656 20.8031847,51.5178344 C20.8031847,52.0261146 20.6216561,52.4617834 20.2949045,52.788535 C19.9681529,53.1152866 19.4598726,53.333121 18.8063694,53.4057325 C19.2783439,53.5872611 19.7140127,54.0229299 20.1496815,54.6764331 L21.3840764,56.6006369 L20.222293,56.6006369 L19.2783439,55.1484076 C18.8063694,54.3859873 18.4433121,53.9140127 18.189172,53.7687898 C17.9350318,53.5872611 17.6082803,53.5146497 17.2089172,53.5146497 L16.1197452,53.5146497 L16.1197452,56.6369427 L15.2121019,56.6369427 L15.2121019,56.6369427 Z M16.156051,52.7159236 L18.1528662,52.7159236 C18.733758,52.7159236 19.1694268,52.6070064 19.4598726,52.4254777 C19.7503185,52.243949 19.8955414,51.9171975 19.8955414,51.5541401 C19.8955414,51.2636943 19.7866242,50.9732484 19.5687898,50.755414 C19.3509554,50.5375796 18.9515924,50.3923567 18.4070064,50.3923567 L16.1923567,50.3923567 C16.1197452,50.3923567 16.1197452,52.7159236 16.156051,52.7159236 Z M24.6152866,56.6369427 L24.6152866,49.6299363 L29.6980892,49.6299363 L29.6980892,50.4649682 L25.5229299,50.4649682 L25.5229299,52.6070064 L29.4076433,52.6070064 L29.4076433,53.4420382 L25.5229299,53.4420382 L25.5229299,55.8382166 L29.8433121,55.8382166 L29.8433121,56.6732484 L24.6152866,56.6732484 L24.6152866,56.6369427 Z M33.4012739,56.6369427 L33.4012739,49.6299363 L34.3452229,49.6299363 L34.3452229,53.1152866 L37.8305732,49.6299363 L39.1012739,49.6299363 L36.1605096,52.4617834 L39.2101911,56.6369427 L37.9757962,56.6369427 L35.4707006,53.0789809 L34.3089172,54.2044586 L34.3089172,56.6369427 L33.4012739,56.6369427 L33.4012739,56.6369427 Z M42.0057325,53.2242038 C42.0057325,52.0624204 42.3324841,51.1547771 42.9496815,50.5012739 C43.566879,49.8477707 44.3656051,49.5210191 45.3821656,49.5210191 C46.3624204,49.5210191 47.1611465,49.8477707 47.7783439,50.5375796 C48.3955414,51.2273885 48.722293,52.0987261 48.722293,53.1878981 C48.722293,54.2770701 48.3955414,55.1484076 47.7783439,55.8019108 C47.1611465,56.455414 46.3624204,56.7821656 45.3821656,56.7821656 C44.6923567,56.7821656 44.0388535,56.6006369 43.5305732,56.2375796 C42.9859873,55.8745223 42.6229299,55.4388535 42.3687898,54.8942675 C42.1509554,54.3133758 42.0057325,53.7687898 42.0057325,53.2242038 Z M42.9859873,53.2242038 C42.9859873,54.0229299 43.2038217,54.6764331 43.6394904,55.1847134 C44.0751592,55.6929936 44.656051,55.9471338 45.3821656,55.9471338 C46.1082803,55.9471338 46.689172,55.6929936 47.1248408,55.1847134 C47.5605096,54.6764331 47.7783439,53.9866242 47.7783439,53.1152866 C47.7783439,52.2076433 47.5605096,51.5178344 47.088535,51.0095541 C46.6528662,50.5012739 46.0719745,50.2471338 45.3821656,50.2471338 C44.6923567,50.2471338 44.111465,50.4649682 43.6757962,50.9369427 C43.2038217,51.4815287 42.9859873,52.2076433 42.9859873,53.2242038 Z M52.2802548,56.6369427 L52.2802548,49.6299363 L55.4025478,49.6299363 C55.9471338,49.6299363 56.3828025,49.666242 56.7095541,49.7751592 C57.0363057,49.8840764 57.3267516,50.1019108 57.544586,50.3923567 C57.7624204,50.7191083 57.8713376,51.0821656 57.8713376,51.5178344 C57.8713376,52.0261146 57.6898089,52.4617834 57.3630573,52.788535 C57.0363057,53.1152866 56.5280255,53.333121 55.8745223,53.4057325 C56.3464968,53.5872611 56.7821656,54.0229299 57.2178344,54.6764331 L58.4522293,56.6006369 L57.2904459,56.6006369 L56.3464968,55.1484076 C55.8745223,54.3859873 55.511465,53.9140127 55.2573248,53.7687898 C55.0031847,53.5872611 54.6764331,53.5146497 54.2770701,53.5146497 L53.1878981,53.5146497 L53.1878981,56.6369427 L52.2802548,56.6369427 L52.2802548,56.6369427 Z M53.2242038,52.7159236 L55.2210191,52.7159236 C55.8019108,52.7159236 56.2375796,52.6070064 56.5280255,52.4254777 C56.8184713,52.243949 56.9636943,51.9171975 56.9636943,51.5541401 C56.9636943,51.2636943 56.8547771,50.9732484 56.6369427,50.755414 C56.4191083,50.5375796 56.0197452,50.3923567 55.4751592,50.3923567 L53.2605096,50.3923567 L53.2242038,52.7159236 L53.2242038,52.7159236 Z M66.7299363,56.6369427 L66.7299363,49.6299363 L69.8522293,49.6299363 C70.3968153,49.6299363 70.8324841,49.666242 71.1592357,49.7751592 C71.4859873,49.8840764 71.7764331,50.1019108 71.9942675,50.3923567 C72.2121019,50.7191083 72.3210191,51.0821656 72.3210191,51.5178344 C72.3210191,52.0261146 72.1394904,52.4617834 71.8127389,52.788535 C71.4859873,53.1152866 70.977707,53.333121 70.3242038,53.4057325 C70.7961783,53.5872611 71.2318471,54.0229299 71.6675159,54.6764331 L72.9019108,56.6006369 L71.7401274,56.6006369 L70.7961783,55.1484076 C70.3242038,54.3859873 69.9611465,53.9140127 69.7070064,53.7687898 C69.4528662,53.5872611 69.1261146,53.5146497 68.7267516,53.5146497 L67.6375796,53.5146497 L67.6375796,56.6369427 L66.7299363,56.6369427 L66.7299363,56.6369427 Z M67.6738854,52.7159236 L69.6707006,52.7159236 C70.2515924,52.7159236 70.6872611,52.6070064 70.977707,52.4254777 C71.2681529,52.243949 71.4133758,51.9171975 71.4133758,51.5541401 C71.4133758,51.2636943 71.3044586,50.9732484 71.0866242,50.755414 C70.8687898,50.5375796 70.4694268,50.3923567 69.9248408,50.3923567 L67.7101911,50.3923567 L67.6738854,52.7159236 L67.6738854,52.7159236 Z M76.133121,56.6369427 L76.133121,49.6299363 L81.2159236,49.6299363 L81.2159236,50.4649682 L77.0770701,50.4649682 L77.0770701,52.6070064 L80.9617834,52.6070064 L80.9617834,53.4420382 L77.0770701,53.4420382 L77.0770701,55.8382166 L81.3974522,55.8382166 L81.3974522,56.6732484 L76.133121,56.6732484 L76.133121,56.6369427 Z M90.0019108,54.1681529 L90.9458599,54.3859873 C90.7643312,55.1484076 90.4012739,55.7292994 89.8929936,56.1286624 C89.3847134,56.5280255 88.7675159,56.7095541 88.0414013,56.7095541 C86.9159236,56.7095541 86.0808917,56.3464968 85.5363057,55.6566879 C84.9917197,54.966879 84.7375796,54.0592357 84.7375796,53.0426752 C84.7375796,51.9171975 85.0643312,51.0458599 85.6452229,50.4286624 C86.2624204,49.811465 87.0611465,49.4847134 88.0414013,49.4847134 C88.7312102,49.4847134 89.3484076,49.666242 89.8203822,50.0292994 C90.2923567,50.3923567 90.6191083,50.9006369 90.8006369,51.5178344 L89.8929936,51.7356688 C89.566242,50.755414 88.9853503,50.2834395 88.077707,50.2834395 C87.2789809,50.2834395 86.6980892,50.5375796 86.2987261,51.0458599 C85.8993631,51.5541401 85.7178344,52.2076433 85.7178344,53.0426752 C85.7178344,54.0229299 85.9356688,54.7853503 86.3350318,55.2573248 C86.7343949,55.7292994 87.2789809,55.9834395 87.9687898,55.9834395 C88.4770701,55.9834395 88.9127389,55.8382166 89.2757962,55.5477707 C89.6388535,55.2210191 89.8929936,54.7853503 90.0019108,54.1681529 Z M94.0681529,53.2242038 C94.0681529,52.0624204 94.3949045,51.1547771 95.0121019,50.5012739 C95.6292994,49.8477707 96.4643312,49.5210191 97.444586,49.5210191 C98.4248408,49.5210191 99.2235669,49.8477707 99.8407643,50.5375796 C100.457962,51.2273885 100.784713,52.0987261 100.784713,53.1878981 C100.784713,54.2770701 100.457962,55.1484076 99.8407643,55.8019108 C99.2235669,56.455414 98.388535,56.7821656 97.444586,56.7821656 C96.7547771,56.7821656 96.1375796,56.6006369 95.5929936,56.2375796 C95.0484076,55.8745223 94.6853503,55.4388535 94.4312102,54.8942675 C94.2133758,54.3133758 94.0681529,53.7687898 94.0681529,53.2242038 Z M95.0484076,53.2242038 C95.0484076,54.0229299 95.266242,54.6764331 95.7019108,55.1847134 C96.1375796,55.6929936 96.7184713,55.9471338 97.444586,55.9471338 C98.1707006,55.9471338 98.7515924,55.6929936 99.1872611,55.1847134 C99.6229299,54.6764331 99.8407643,53.9866242 99.8407643,53.1152866 C99.8407643,52.2076433 99.6229299,51.5178344 99.1509554,51.0095541 C98.7152866,50.5012739 98.1343949,50.2471338 97.444586,50.2471338 C96.7547771,50.2471338 96.1738854,50.4649682 95.7382166,50.9369427 C95.3025478,51.4089172 95.0484076,52.2076433 95.0484076,53.2242038 Z M107.610191,53.877707 L107.610191,53.0426752 L110.587261,53.0426752 L110.587261,55.6566879 C110.151592,56.0197452 109.679618,56.3101911 109.171338,56.4917197 C108.699363,56.6732484 108.191083,56.7821656 107.682803,56.7821656 C106.593631,56.7821656 105.722293,56.455414 105.06879,55.8019108 C104.415287,55.1484076 104.088535,54.2770701 104.088535,53.1878981 C104.088535,52.1350318 104.378981,51.2273885 104.996178,50.5738854 C105.613376,49.9203822 106.484713,49.5573248 107.610191,49.5573248 C109.171338,49.5573248 110.115287,50.2471338 110.478344,51.6267516 L109.643312,51.844586 C109.389172,50.8280255 108.735669,50.3197452 107.610191,50.3197452 C106.738854,50.3197452 106.08535,50.5738854 105.685987,51.1184713 C105.286624,51.6630573 105.06879,52.3165605 105.06879,53.1152866 C105.06879,54.0592357 105.32293,54.7853503 105.794904,55.2573248 C106.266879,55.7292994 106.884076,55.9471338 107.646497,55.9471338 C108.082166,55.9471338 108.481529,55.8745223 108.880892,55.6929936 C109.280255,55.511465 109.534395,55.366242 109.715924,55.2210191 L109.715924,53.9140127 L107.610191,53.877707 L107.610191,53.877707 Z M114.290446,56.6369427 L114.290446,49.6299363 L115.234395,49.6299363 L118.901274,55.1484076 L118.901274,49.6299363 L119.808917,49.6299363 L119.808917,56.6369427 L118.864968,56.6369427 L115.198089,51.1184713 L115.198089,56.6369427 L114.290446,56.6369427 Z M123.838854,56.6369427 L123.838854,49.6299363 L124.782803,49.6299363 L124.782803,56.6369427 L123.838854,56.6369427 Z M130.519108,56.6369427 L130.519108,50.4649682 L128.195541,50.4649682 L128.195541,49.6299363 L133.750318,49.6299363 L133.750318,50.4649682 L131.426752,50.4649682 L131.426752,56.6369427 L130.519108,56.6369427 Z M137.199363,56.6369427 L137.199363,49.6299363 L138.143312,49.6299363 L138.143312,56.6369427 L137.199363,56.6369427 Z M141.810191,53.2242038 C141.810191,52.0624204 142.136943,51.1547771 142.75414,50.5012739 C143.371338,49.8477707 144.206369,49.5210191 145.186624,49.5210191 C146.166879,49.5210191 146.965605,49.8477707 147.582803,50.5375796 C148.2,51.2273885 148.526752,52.0987261 148.526752,53.1878981 C148.526752,54.2770701 148.2,55.1484076 147.582803,55.8019108 C146.965605,56.455414 146.130573,56.7821656 145.186624,56.7821656 C144.496815,56.7821656 143.879618,56.6006369 143.335032,56.2375796 C142.790446,55.8745223 142.427389,55.4388535 142.173248,54.8942675 C141.955414,54.3133758 141.810191,53.7687898 141.810191,53.2242038 Z M142.790446,53.2242038 C142.790446,54.0229299 143.00828,54.6764331 143.443949,55.1847134 C143.879618,55.6929936 144.46051,55.9471338 145.186624,55.9471338 C145.912739,55.9471338 146.493631,55.6929936 146.929299,55.1847134 C147.364968,54.6764331 147.582803,53.9866242 147.582803,53.1152866 C147.582803,52.2076433 147.364968,51.5178344 146.892994,51.0095541 C146.457325,50.5012739 145.876433,50.2471338 145.186624,50.2471338 C144.496815,50.2471338 143.915924,50.4649682 143.480255,50.9369427 C143.044586,51.4089172 142.790446,52.2076433 142.790446,53.2242038 Z M152.084713,56.6369427 L152.084713,49.6299363 L153.028662,49.6299363 L156.695541,55.1484076 L156.695541,49.6299363 L157.603185,49.6299363 L157.603185,56.6369427 L156.659236,56.6369427 L152.992357,51.1184713 L152.992357,56.6369427 L152.084713,56.6369427 Z M166.207643,54.3859873 L167.078981,54.3133758 C167.115287,54.8942675 167.369427,55.2936306 167.76879,55.5477707 C168.168153,55.8019108 168.640127,55.9471338 169.148408,55.9471338 C169.692994,55.9471338 170.128662,55.8382166 170.419108,55.6203822 C170.74586,55.4025478 170.891083,55.1121019 170.891083,54.7490446 C170.891083,54.5312102 170.818471,54.3133758 170.709554,54.1681529 C170.600637,54.0229299 170.382803,53.877707 170.164968,53.7687898 C169.910828,53.6598726 169.475159,53.5509554 168.78535,53.4057325 C168.204459,53.2605096 167.76879,53.1152866 167.478344,53.0063694 C167.187898,52.8611465 166.933758,52.6796178 166.752229,52.389172 C166.570701,52.1350318 166.461783,51.8082803 166.461783,51.4815287 C166.461783,50.9006369 166.679618,50.4649682 167.151592,50.1019108 C167.623567,49.7388535 168.204459,49.5573248 168.966879,49.5573248 C169.765605,49.5573248 170.419108,49.7388535 170.854777,50.1019108 C171.326752,50.4649682 171.580892,50.9732484 171.580892,51.6267516 L170.673248,51.6993631 C170.600637,50.7917197 170.019745,50.356051 168.966879,50.356051 C168.458599,50.356051 168.059236,50.4649682 167.76879,50.6464968 C167.478344,50.8280255 167.333121,51.0821656 167.333121,51.4089172 C167.333121,51.6993631 167.442038,51.9171975 167.659873,52.0624204 C167.877707,52.2076433 168.313376,52.389172 169.003185,52.5343949 C169.729299,52.6796178 170.23758,52.8611465 170.600637,53.0063694 C170.963694,53.1515924 171.25414,53.3694268 171.435669,53.6598726 C171.617197,53.9503185 171.76242,54.3133758 171.76242,54.7127389 C171.76242,55.3299363 171.50828,55.8382166 171.036306,56.2375796 C170.564331,56.6369427 169.947134,56.8184713 169.148408,56.8184713 C168.168153,56.8184713 167.405732,56.6006369 166.933758,56.1649682 C166.461783,55.6566879 166.207643,55.0757962 166.207643,54.3859873 Z M177.353503,56.6369427 L177.353503,53.6598726 L174.630573,49.6299363 L175.756051,49.6299363 L177.135669,51.7356688 C177.426115,52.1350318 177.643949,52.5343949 177.861783,52.933758 C178.079618,52.5707006 178.333758,52.1350318 178.624204,51.6993631 L180.003822,49.6299363 L181.092994,49.6299363 L178.297452,53.6598726 L178.297452,56.6369427 L177.353503,56.6369427 L177.353503,56.6369427 Z M183.924841,54.3859873 L184.796178,54.3133758 C184.86879,54.8942675 185.086624,55.2936306 185.485987,55.5477707 C185.88535,55.8019108 186.357325,55.9471338 186.865605,55.9471338 C187.410191,55.9471338 187.84586,55.8382166 188.136306,55.6203822 C188.463057,55.4025478 188.60828,55.1121019 188.60828,54.7490446 C188.60828,54.5312102 188.535669,54.3133758 188.426752,54.1681529 C188.317834,54.0229299 188.1,53.877707 187.882166,53.7687898 C187.664331,53.6598726 187.192357,53.5509554 186.502548,53.4057325 C185.921656,53.2605096 185.485987,53.1152866 185.195541,53.0063694 C184.905096,52.8611465 184.650955,52.6796178 184.469427,52.389172 C184.287898,52.0987261 184.178981,51.8082803 184.178981,51.4815287 C184.178981,50.9006369 184.396815,50.4649682 184.832484,50.1019108 C185.268153,49.7388535 185.88535,49.5573248 186.647771,49.5573248 C187.446497,49.5573248 188.1,49.7388535 188.535669,50.1019108 C189.007643,50.4649682 189.261783,50.9732484 189.261783,51.6267516 L188.35414,51.6993631 C188.281529,50.7917197 187.700637,50.356051 186.647771,50.356051 C186.13949,50.356051 185.740127,50.4649682 185.449682,50.6464968 C185.159236,50.8280255 185.014013,51.0821656 185.014013,51.4089172 C185.014013,51.6993631 185.12293,51.9171975 185.340764,52.0624204 C185.558599,52.2076433 185.994268,52.389172 186.684076,52.5343949 C187.410191,52.6796178 187.918471,52.8611465 188.281529,53.0063694 C188.644586,53.1515924 188.935032,53.3694268 189.116561,53.6598726 C189.298089,53.9503185 189.443312,54.3133758 189.443312,54.7127389 C189.443312,55.3299363 189.189172,55.8382166 188.717197,56.2375796 C188.245223,56.6369427 187.628025,56.8184713 186.829299,56.8184713 C185.849045,56.8184713 185.086624,56.6006369 184.61465,56.1649682 C184.215287,55.6566879 183.961146,55.0757962 183.924841,54.3859873 Z M194.889172,56.6369427 L194.889172,50.4649682 L192.565605,50.4649682 L192.565605,49.6299363 L198.120382,49.6299363 L198.120382,50.4649682 L195.796815,50.4649682 L195.796815,56.6369427 L194.889172,56.6369427 Z M201.46051,56.6369427 L201.46051,49.6299363 L206.543312,49.6299363 L206.543312,50.4649682 L202.404459,50.4649682 L202.404459,52.6070064 L206.289172,52.6070064 L206.289172,53.4420382 L202.404459,53.4420382 L202.404459,55.8382166 L206.724841,55.8382166 L206.724841,56.6732484 L201.46051,56.6732484 L201.46051,56.6369427 Z M210.282803,56.6369427 L210.282803,49.6299363 L211.66242,49.6299363 L213.332484,54.6038217 L213.659236,55.6566879 C213.731847,55.4388535 213.840764,55.0757962 214.022293,54.5312102 L215.692357,49.666242 L216.963057,49.666242 L216.963057,56.6369427 L216.055414,56.6369427 L216.055414,50.755414 L214.022293,56.6369427 L213.187261,56.6369427 L211.15414,50.6828025 L211.15414,56.6369427 L210.282803,56.6369427 L210.282803,56.6369427 Z M220.484713,54.3859873 L221.356051,54.3133758 C221.428662,54.8942675 221.646497,55.2936306 222.04586,55.5477707 C222.445223,55.8019108 222.917197,55.9471338 223.425478,55.9471338 C223.970064,55.9471338 224.405732,55.8382166 224.696178,55.6203822 C225.02293,55.4025478 225.168153,55.1121019 225.168153,54.7490446 C225.168153,54.5312102 225.095541,54.3133758 224.986624,54.1681529 C224.877707,54.0229299 224.659873,53.877707 224.442038,53.7687898 C224.224204,53.6598726 223.752229,53.5509554 223.06242,53.4057325 C222.481529,53.2605096 222.04586,53.1152866 221.755414,53.0063694 C221.464968,52.8611465 221.210828,52.6796178 221.029299,52.389172 C220.847771,52.0987261 220.738854,51.8082803 220.738854,51.4815287 C220.738854,50.9006369 220.956688,50.4649682 221.392357,50.1019108 C221.828025,49.7388535 222.445223,49.5573248 223.207643,49.5573248 C224.006369,49.5573248 224.659873,49.7388535 225.095541,50.1019108 C225.567516,50.4649682 225.821656,50.9732484 225.821656,51.6267516 L224.914013,51.6993631 C224.841401,50.7917197 224.26051,50.356051 223.207643,50.356051 C222.699363,50.356051 222.3,50.4649682 222.009554,50.6464968 C221.719108,50.8280255 221.573885,51.0821656 221.573885,51.4089172 C221.573885,51.6993631 221.682803,51.9171975 221.900637,52.0624204 C222.118471,52.2076433 222.55414,52.389172 223.243949,52.5343949 C223.970064,52.6796178 224.478344,52.8611465 224.841401,53.0063694 C225.204459,53.1515924 225.494904,53.3694268 225.676433,53.6598726 C225.857962,53.9503185 226.003185,54.3133758 226.003185,54.7127389 C226.003185,55.3299363 225.749045,55.8382166 225.27707,56.2375796 C224.805096,56.6369427 224.187898,56.8184713 223.389172,56.8184713 C222.408917,56.8184713 221.646497,56.6006369 221.174522,56.1649682 C220.738854,55.6566879 220.484713,55.0757962 220.484713,54.3859873 Z M239.726752,54.1681529 L240.670701,54.3859873 C240.489172,55.1484076 240.126115,55.7292994 239.617834,56.1286624 C239.109554,56.5280255 238.492357,56.7095541 237.766242,56.7095541 C236.640764,56.7095541 235.805732,56.3464968 235.261146,55.6566879 C234.716561,54.966879 234.46242,54.0592357 234.46242,53.0426752 C234.46242,51.9171975 234.752866,51.0458599 235.370064,50.4286624 C235.987261,49.811465 236.785987,49.4847134 237.766242,49.4847134 C238.456051,49.4847134 239.073248,49.666242 239.545223,50.0292994 C240.017197,50.3923567 240.343949,50.9006369 240.525478,51.5178344 L239.617834,51.7356688 C239.291083,50.755414 238.710191,50.2834395 237.802548,50.2834395 C237.003822,50.2834395 236.42293,50.5375796 236.023567,51.0458599 C235.624204,51.5541401 235.442675,52.2076433 235.442675,53.0426752 C235.442675,54.0229299 235.66051,54.7853503 236.059873,55.2573248 C236.495541,55.7292994 237.040127,55.9834395 237.693631,55.9834395 C238.201911,55.9834395 238.63758,55.8382166 239.036943,55.5477707 C239.363694,55.2210191 239.617834,54.7853503 239.726752,54.1681529 Z M243.829299,53.2242038 C243.829299,52.0624204 244.156051,51.1547771 244.773248,50.5012739 C245.390446,49.8477707 246.225478,49.5210191 247.205732,49.5210191 C248.185987,49.5210191 248.984713,49.8477707 249.638217,50.5375796 C250.255414,51.1910828 250.582166,52.0987261 250.582166,53.1878981 C250.582166,54.2770701 250.255414,55.1484076 249.638217,55.8019108 C249.021019,56.455414 248.185987,56.7821656 247.242038,56.7821656 C246.552229,56.7821656 245.898726,56.6006369 245.390446,56.2375796 C244.84586,55.8745223 244.482803,55.4388535 244.228662,54.8942675 C243.938217,54.3133758 243.829299,53.7687898 243.829299,53.2242038 Z M244.773248,53.2242038 C244.773248,54.0229299 244.991083,54.6764331 245.426752,55.1847134 C245.86242,55.6929936 246.443312,55.9471338 247.169427,55.9471338 C247.895541,55.9471338 248.476433,55.6929936 248.912102,55.1847134 C249.347771,54.6764331 249.565605,53.9866242 249.565605,53.1152866 C249.565605,52.2076433 249.347771,51.5178344 248.912102,51.0095541 C248.476433,50.5012739 247.895541,50.2471338 247.205732,50.2471338 C246.515924,50.2471338 245.935032,50.4649682 245.499363,50.9369427 C245.063694,51.4089172 244.773248,52.2076433 244.773248,53.2242038 Z M254.03121,56.6369427 L254.03121,49.6299363 L255.410828,49.6299363 L257.080892,54.6038217 L257.407643,55.6566879 C257.480255,55.4388535 257.589172,55.0757962 257.770701,54.5312102 L259.440764,49.666242 L260.711465,49.666242 L260.711465,56.6369427 L259.803822,56.6369427 L259.803822,50.755414 L257.770701,56.6369427 L256.935669,56.6369427 L254.902548,50.6828025 L254.902548,56.6369427 L254.03121,56.6369427 L254.03121,56.6369427 Z M264.559873,56.6369427 L264.559873,49.6299363 L267.210191,49.6299363 C267.827389,49.6299363 268.299363,49.666242 268.66242,49.7751592 C269.025478,49.8840764 269.315924,50.1019108 269.570064,50.4286624 C269.824204,50.755414 269.933121,51.1547771 269.933121,51.6267516 C269.933121,52.243949 269.751592,52.7522293 269.352229,53.1515924 C268.952866,53.5509554 268.299363,53.7687898 267.319108,53.7687898 L265.503822,53.7687898 L265.503822,56.6369427 L264.559873,56.6369427 L264.559873,56.6369427 Z M265.467516,52.9700637 L267.282803,52.9700637 C267.827389,52.9700637 268.263057,52.8611465 268.517197,52.6433121 C268.807643,52.4254777 268.916561,52.0987261 268.916561,51.6993631 C268.916561,51.4089172 268.843949,51.1547771 268.698726,50.9369427 C268.553503,50.7191083 268.371975,50.6101911 268.190446,50.5375796 C268.008917,50.5012739 267.682166,50.4649682 267.282803,50.4649682 L265.503822,50.4649682 L265.467516,52.9700637 L265.467516,52.9700637 Z M272.656051,56.6369427 L275.342675,49.6299363 L276.359236,49.6299363 L279.227389,56.6369427 L278.174522,56.6369427 L277.33949,54.4949045 L274.398726,54.4949045 L273.636306,56.6369427 L272.656051,56.6369427 Z M274.689172,53.7687898 L277.049045,53.7687898 L276.32293,51.8082803 C276.105096,51.1910828 275.923567,50.7191083 275.850955,50.356051 C275.778344,50.7917197 275.633121,51.2273885 275.487898,51.6993631 L274.689172,53.7687898 Z M282.313376,56.6369427 L282.313376,49.6299363 L283.257325,49.6299363 L286.924204,55.1484076 L286.924204,49.6299363 L287.831847,49.6299363 L287.831847,56.6369427 L286.887898,56.6369427 L283.184713,51.1184713 L283.184713,56.6369427 L282.313376,56.6369427 Z M293.640764,56.6369427 L293.640764,53.6598726 L290.917834,49.6299363 L292.043312,49.6299363 L293.42293,51.7356688 C293.713376,52.1350318 293.93121,52.5343949 294.149045,52.933758 C294.366879,52.5707006 294.621019,52.1350318 294.911465,51.6993631 L296.291083,49.6299363 L297.380255,49.6299363 L294.584713,53.6598726 L294.584713,56.6369427 L293.640764,56.6369427 L293.640764,56.6369427 Z"/>
    <path fill="#000" d="M6.89808917 24.9783439L6.89808917 39.0286624.254140127 39.0286624.254140127.181528662 6.89808917.181528662 14.6675159.181528662C18.0802548.181528662 20.9847134 1.37961783 23.4171975 3.81210191 25.8496815 6.24458599 27.0477707 9.14904459 27.0477707 12.5617834 27.0477707 16.010828 25.8496815 18.9515924 23.4171975 21.3477707 20.9484076 23.7802548 18.043949 24.9783439 14.6675159 24.9783439L14.7038217 24.9783439 6.89808917 24.9783439zM6.89808917 19.0605096L14.3044586 19.0605096C16.0834395 19.0605096 17.6082803 18.4433121 18.8789809 17.1726115 20.1496815 15.9019108 20.766879 14.3770701 20.766879 12.5980892 20.766879 10.8191083 20.1496815 9.29426752 18.8789809 8.02356688 17.6082803 6.75286624 16.0834395 6.13566879 14.3044586 6.13566879L6.89808917 6.13566879 6.89808917 19.0605096zM33.9821656 39.0286624L33.9821656.181528662 58.3796178.181528662 58.3796178 6.09936306 40.6261146 6.09936306 40.6261146 16.4464968 56.8910828 16.4464968 56.8910828 22.3643312 40.6261146 22.3643312 40.6261146 33.110828 59.4687898 33.110828 59.4687898 39.0286624C59.4687898 39.0286624 33.9821656 39.0286624 33.9821656 39.0286624zM74.9350318 39.0286624L68.2910828 39.0286624 68.2910828.181528662 75.6611465.181528662 94.5038217 28.3184713 94.5038217.181528662 101.147771.181528662 101.147771 39.0286624 93.7414013 39.0286624 74.8987261 10.8917197 74.8987261 39.0286624 74.9350318 39.0286624zM110.659873 39.0286624L126.416561.14522293 130.119745.14522293 145.803822 39.0286624 142.028025 39.0286624 137.30828 27.0477707 118.973885 27.0477707 114.25414 39.0649682C114.290446 39.0286624 110.659873 39.0286624 110.659873 39.0286624zM128.304459 3.34012739L128.086624 3.34012739C128.014013 3.92101911 127.796178 4.61082803 127.505732 5.40955414L120.099363 24.1796178 136.328025 24.1796178 128.88535 5.40955414C128.558599 4.61082803 128.37707 3.92101911 128.304459 3.34012739zM158.83758 36.0515924L158.83758 33.2197452 158.83758.181528662 155.533758.181528662 155.533758 39.0649682 177.716561 39.0649682 177.716561 36.0515924 158.83758 36.0515924zM186.538854 39.0286624L186.538854.181528662 198.592357.181528662C202.694904.181528662 205.96242 1.16178344 208.322293 3.19490446 210.682166 5.19171975 211.880255 7.98726115 211.880255 11.6178344 211.880255 15.1031847 210.64586 17.9350318 208.17707 20.1496815 205.744586 22.2917197 202.549682 23.3808917 198.664968 23.3808917L189.842675 23.3808917 189.842675 39.1012739C189.806369 39.0286624 186.538854 39.0286624 186.538854 39.0286624zM198.519745 3.12229299L189.806369 3.12229299 189.806369 20.6579618 198.519745 20.6579618C201.496815 20.6579618 203.892994 19.8592357 205.70828 18.2617834 207.523567 16.6643312 208.43121 14.4496815 208.43121 11.5815287 208.43121 8.85859873 207.559873 6.78917197 205.853503 5.30063694 204.074522 3.84840764 201.642038 3.12229299 198.519745 3.12229299zM223.06242 39.0286624L223.06242.181528662 235.007006.181528662C239.182166.181528662 242.485987 1.12547771 244.809554 2.97707006 247.169427 4.82866242 248.33121 7.44267516 248.33121 10.8191083 248.33121 14.0140127 247.242038 16.555414 245.027389 18.5159236 242.776433 20.5127389 240.017197 21.6019108 236.749682 21.7471338L236.749682 21.9649682 239.036943 24.2522293 246.443312 34.7808917 249.093631 39.0286624 245.499363 39.0286624 233.336943 21.9286624 226.329936 21.9286624 226.329936 39.0286624 223.06242 39.0286624zM235.115924 3.12229299L226.366242 3.12229299 226.366242 19.3509554 235.370064 19.3509554C238.274522 19.3509554 240.598089 18.588535 242.304459 17.1 244.047134 15.5751592 244.882166 13.5057325 244.882166 10.8191083 244.882166 8.31401274 244.047134 6.38980892 242.37707 5.08280255 240.707006 3.77579618 238.274522 3.12229299 235.115924 3.12229299z" transform="translate(47.197 .726)"/>
    <path fill="#2762BE" d="M28.3184713,22.5458599 L18.2980892,39.9 C18.8426752,39.9363057 19.3872611,39.9726115 19.9681529,39.9726115 C25.8133758,39.9726115 31.0414013,37.4675159 34.7082803,33.5101911 L34.6719745,33.4738854 L28.3184713,22.5458599 Z M16.1197452,38.9923567 L22.0375796,28.2821656 L21.856051,28.2821656 L1.81528662,28.2821656 L1.77898089,28.2821656 C4.39299363,33.9458599 9.54840764,38.1936306 15.7929936,39.5006369 L16.1197452,38.9923567 L16.1197452,38.9923567 Z M38.0121019,11.4 C35.4343949,5.99044586 30.533121,1.96050955 24.5789809,0.544585987 L18.1165605,11.3636943 L38.0121019,11.4 Z M4.97388535,6.78917197 L5.11910828,7.0433121 L5.11910828,7.0433121 L5.11910828,7.0433121 L11.6178344,17.6082803 L21.9649682,0.108917197 C21.311465,0.0363057325 20.6579618,0 19.9681529,0 C13.977707,0 8.64076433,2.61401274 4.97388535,6.78917197 L4.97388535,6.78917197 L4.97388535,6.78917197 Z M36.3420382,31.4407643 C38.6292994,28.2095541 39.9363057,24.2522293 39.9363057,20.0044586 C39.9363057,17.9350318 39.6095541,15.9382166 39.0286624,14.0503185 L26.3216561,14.0503185 L36.3420382,31.4407643 Z M3.41273885,8.78598726 L3.41273885,8.78598726 C1.2343949,11.9808917 0,15.8292994 0,19.9681529 C0,22.0012739 0.29044586,23.9617834 0.87133758,25.8133758 L13.6872611,25.8133758 L3.41273885,8.78598726 Z"/>
  </g>
</svg>
